<svg width="172" height="47" viewBox="0 0 172 47" fill="none" xmlns="http://www.w3.org/2000/svg">
<path d="M42.6885 35.4735C38.5062 35.4735 35.8628 32.7313 35.8628 27.3852V23.3608L35.8036 14.9766C35.8036 14.7793 35.9022 14.6807 36.0798 14.6807H39.177C39.3545 14.6807 39.4729 14.7793 39.4729 14.9766L39.394 23.3608V27.2471C39.394 31.0545 41.1497 32.7313 43.6748 32.7313C46.338 32.7313 48.4883 30.581 49.2774 26.6158V23.3608L49.2183 14.9766C49.2183 14.7793 49.3169 14.6807 49.4944 14.6807H52.6311C52.8087 14.6807 52.927 14.7793 52.927 14.9766L52.8284 23.9132L52.8876 34.7041C52.8876 34.9014 52.7692 35 52.5917 35H49.6523C49.455 35 49.3564 34.9014 49.3564 34.7041L49.455 31.4491C48.2122 33.5402 45.9238 35.4735 42.6885 35.4735ZM56.0523 35C55.8747 35 55.7761 34.9014 55.7761 34.7041L55.8747 25.7675L55.8156 14.9766C55.8156 14.7793 55.9142 14.6807 56.0917 14.6807H59.0509C59.2284 14.6807 59.3271 14.7793 59.3271 14.9766L59.2481 18.2316C60.491 16.1405 62.7794 14.2072 65.9949 14.2072C70.1969 14.2072 72.8207 16.9493 72.8207 22.2955V26.3199L72.8996 34.7041C72.8996 34.9014 72.7812 35 72.6037 35H69.5064C69.3289 35 69.2303 34.9014 69.2303 34.7041L69.2894 26.3199V22.4336C69.2894 18.6262 67.5534 16.9493 65.0086 16.9493C62.3454 16.9493 60.1951 19.0996 59.4257 23.0649V26.3199L59.4849 34.7041C59.4849 34.9014 59.3665 35 59.189 35H56.0523ZM84.4287 35.4537C78.3132 35.4537 74.9004 31.2912 74.9004 24.8995C74.9004 18.5078 78.3132 14.227 84.5077 14.227C89.5382 14.227 92.6157 17.0677 93.0497 21.3091C93.0891 21.5064 92.9707 21.605 92.7932 21.605H90.0314C89.8538 21.605 89.7354 21.5064 89.7157 21.3288C89.2028 18.2316 87.1117 16.7521 84.5077 16.7521C80.503 16.7718 78.6289 19.7704 78.6289 24.8798C78.6289 30.0681 80.503 32.9286 84.4879 32.9483C87.4273 32.9681 89.6171 31.1531 89.9327 27.76C89.9524 27.5825 90.0511 27.4838 90.2286 27.4838H93.0497C93.2272 27.4838 93.3456 27.5825 93.3258 27.7403C92.9313 32.1987 89.6763 35.4537 84.4287 35.4537ZM95.6414 35C95.4638 35 95.3454 34.9014 95.3454 34.7041L95.4638 20.9738L95.3454 7.6577C95.3454 7.46042 95.4638 7.38151 95.6414 7.38151H98.6794C98.8569 7.38151 98.9556 7.46042 98.9556 7.6577L98.8767 18.0738C100.139 15.963 102.309 14.2072 105.466 14.2072C109.786 14.2072 112.429 16.8507 112.37 22.69L112.351 26.7539L112.429 34.7041C112.429 34.9014 112.331 35 112.153 35H109.036C108.859 35 108.74 34.9014 108.74 34.7041L108.819 26.7934V22.4336C108.8 18.5078 107.044 16.9099 104.578 16.9099C102.033 16.9099 99.9617 18.8629 98.8569 22.0982L98.9556 34.7041C98.9556 34.9014 98.8569 35 98.6794 35H95.6414ZM122.855 35.3748C117.371 35.3748 114.451 30.798 114.451 24.8798C114.451 19.0207 117.548 14.2861 122.914 14.2861C125.853 14.2861 128.043 15.5881 129.345 17.9949L129.266 14.9766C129.247 14.7793 129.365 14.6807 129.542 14.6807H132.6C132.778 14.6807 132.896 14.7793 132.896 14.9766L132.797 24.6233L132.896 34.7041C132.896 34.9014 132.778 35 132.6 35H129.562C129.385 35 129.286 34.9014 129.286 34.7041L129.345 31.5477C128.023 33.9347 125.834 35.3748 122.855 35.3748ZM123.782 32.8694C127.254 32.8694 129.404 30.2457 129.444 25.0179C129.483 19.7901 127.432 16.8113 123.861 16.7915C119.955 16.7521 118.12 19.9874 118.12 24.6233C118.12 29.5158 119.955 32.8892 123.782 32.8694ZM136.04 35C135.862 35 135.744 34.9014 135.744 34.7041L135.862 21.3091L135.744 7.67742C135.744 7.48015 135.862 7.38151 136.04 7.38151H139.078C139.255 7.38151 139.354 7.48015 139.354 7.67742L139.275 23.4397L147.047 14.8385C147.126 14.7201 147.245 14.6807 147.403 14.6807H150.776C151.032 14.6807 151.092 14.8582 150.934 15.0358L144.325 21.9996L151.9 34.6646C151.999 34.8422 151.92 35 151.703 35H148.152C147.994 35 147.876 34.9408 147.797 34.8027L146.16 31.8041L141.8 24.6036L139.295 27.3457L139.354 34.7041C139.354 34.9014 139.255 35 139.078 35H136.04ZM159.375 35.4735C155.193 35.4735 152.549 32.7313 152.549 27.3852V23.3608L152.49 14.9766C152.49 14.7793 152.589 14.6807 152.766 14.6807H155.864C156.041 14.6807 156.159 14.7793 156.159 14.9766L156.081 23.3608V27.2471C156.081 31.0545 157.836 32.7313 160.361 32.7313C163.025 32.7313 165.175 30.581 165.964 26.6158V23.3608L165.905 14.9766C165.905 14.7793 166.003 14.6807 166.181 14.6807H169.318C169.495 14.6807 169.614 14.7793 169.614 14.9766L169.515 23.9132L169.574 34.7041C169.574 34.9014 169.456 35 169.278 35H166.339C166.142 35 166.043 34.9014 166.043 34.7041L166.142 31.4491C164.899 33.5402 162.61 35.4735 159.375 35.4735Z" fill="#111143"/>
<path d="M24.2275 37.3887H24.21L20.7988 25.8867L18.7422 18.9521H18.7432C19.0417 19.901 19.9377 20.5898 20.9961 20.5898C21.9543 20.5898 22.7785 20.0255 23.1465 19.2148C23.203 19.0915 23.2485 18.9623 23.2822 18.8291L29.2715 1.8125C29.2138 2.00217 29.1811 2.20219 29.1709 2.4082C29.1848 2.21881 29.2192 2.0348 29.2725 1.85938L29.3477 1.64453C29.7162 0.720924 30.6045 0.0562983 31.6572 0.00292969H31.8965C31.8864 0.00230538 31.8763 0.000513443 31.8662 0H37.3887L24.2275 37.3887ZM16.5898 11.502L18.6455 18.4355H18.6445C18.3458 17.4869 17.4499 16.7988 16.3916 16.7988C15.4336 16.799 14.6092 17.3624 14.2412 18.1729C14.1847 18.2964 14.1392 18.4263 14.1055 18.5596L8.11621 35.5762C8.18563 35.3478 8.22264 35.1044 8.22266 34.8535C8.22266 34.8519 8.22168 34.8502 8.22168 34.8486C8.21631 35.0843 8.18165 35.3127 8.11621 35.5283L8.04102 35.7441C7.67238 36.6678 6.78327 37.3325 5.73047 37.3857H5.50195C5.5087 37.3861 5.5157 37.3874 5.52246 37.3877H0L13.1602 0H13.1777L16.5898 11.502Z" fill="#111143"/>
</svg>
