<svg width="172" height="47" viewBox="0 0 172 47" fill="none" xmlns="http://www.w3.org/2000/svg">
<path d="M42.6885 35.4735C38.5062 35.4735 35.8628 32.7313 35.8628 27.3852V23.3608L35.8036 14.9766C35.8036 14.7793 35.9022 14.6807 36.0798 14.6807H39.177C39.3545 14.6807 39.4729 14.7793 39.4729 14.9766L39.394 23.3608V27.2471C39.394 31.0545 41.1497 32.7313 43.6748 32.7313C46.338 32.7313 48.4883 30.581 49.2774 26.6158V23.3608L49.2183 14.9766C49.2183 14.7793 49.3169 14.6807 49.4944 14.6807H52.6311C52.8087 14.6807 52.927 14.7793 52.927 14.9766L52.8284 23.9132L52.8876 34.7041C52.8876 34.9014 52.7692 35 52.5917 35H49.6523C49.455 35 49.3564 34.9014 49.3564 34.7041L49.455 31.4491C48.2122 33.5402 45.9238 35.4735 42.6885 35.4735ZM56.0523 35C55.8747 35 55.7761 34.9014 55.7761 34.7041L55.8747 25.7675L55.8156 14.9766C55.8156 14.7793 55.9142 14.6807 56.0917 14.6807H59.0509C59.2284 14.6807 59.3271 14.7793 59.3271 14.9766L59.2481 18.2316C60.491 16.1405 62.7794 14.2072 65.9949 14.2072C70.1969 14.2072 72.8207 16.9493 72.8207 22.2955V26.3199L72.8996 34.7041C72.8996 34.9014 72.7812 35 72.6037 35H69.5064C69.3289 35 69.2303 34.9014 69.2303 34.7041L69.2894 26.3199V22.4336C69.2894 18.6262 67.5534 16.9493 65.0086 16.9493C62.3454 16.9493 60.1951 19.0996 59.4257 23.0649V26.3199L59.4849 34.7041C59.4849 34.9014 59.3665 35 59.189 35H56.0523ZM84.4287 35.4537C78.3132 35.4537 74.9004 31.2912 74.9004 24.8995C74.9004 18.5078 78.3132 14.227 84.5077 14.227C89.5382 14.227 92.6157 17.0677 93.0497 21.3091C93.0891 21.5064 92.9707 21.605 92.7932 21.605H90.0314C89.8538 21.605 89.7354 21.5064 89.7157 21.3288C89.2028 18.2316 87.1117 16.7521 84.5077 16.7521C80.503 16.7718 78.6289 19.7704 78.6289 24.8798C78.6289 30.0681 80.503 32.9286 84.4879 32.9483C87.4273 32.9681 89.6171 31.1531 89.9327 27.76C89.9524 27.5825 90.0511 27.4838 90.2286 27.4838H93.0497C93.2272 27.4838 93.3456 27.5825 93.3258 27.7403C92.9313 32.1987 89.6763 35.4537 84.4287 35.4537ZM95.6414 35C95.4638 35 95.3454 34.9014 95.3454 34.7041L95.4638 20.9738L95.3454 7.6577C95.3454 7.46042 95.4638 7.38151 95.6414 7.38151H98.6794C98.8569 7.38151 98.9556 7.46042 98.9556 7.6577L98.8569 18.8897C100.061 16.7588 102.251 14.2072 105.645 14.2072C109.847 14.2072 112.471 16.9493 112.471 22.2955V26.3199L112.549 34.7041C112.549 34.9014 112.431 35 112.254 35H109.176C108.998 35 108.9 34.9014 108.9 34.7041L108.959 26.3199V22.4336C108.959 18.6262 107.203 16.9493 104.659 16.9493C101.995 16.9493 99.8449 19.0996 99.0755 23.0649V26.3199L99.1347 34.7041C99.1347 34.9014 99.0163 35 98.8388 35H95.6414ZM127.762 35.4735C121.646 35.4735 118.233 31.2912 118.233 24.8995C118.233 18.5276 121.646 14.227 127.82 14.227C133.994 14.227 137.407 18.5078 137.407 24.8798C137.407 31.2714 133.994 35.4735 127.762 35.4735ZM127.82 32.9483C131.864 32.9483 133.679 30.0484 133.679 24.8798C133.679 19.7506 131.845 16.7521 127.762 16.7521C123.678 16.7521 121.961 19.7506 121.961 24.8798C121.961 30.0287 123.678 32.9483 127.82 32.9483ZM139.774 35C139.596 35 139.498 34.9014 139.498 34.7041L139.616 20.9738L139.498 7.6577C139.498 7.46042 139.596 7.38151 139.774 7.38151H142.812C142.989 7.38151 143.088 7.46042 143.088 7.6577L143.009 18.8897C144.213 16.7588 146.403 14.2072 149.797 14.2072C153.999 14.2072 156.623 16.9493 156.623 22.2955V26.3199L156.701 34.7041C156.701 34.9014 156.583 35 156.406 35H153.328C153.151 35 153.052 34.9014 153.052 34.7041L153.111 26.3199V22.4336C153.111 18.6262 151.355 16.9493 148.811 16.9493C146.147 16.9493 143.997 19.0996 143.227 23.0649V26.3199L143.287 34.7041C143.287 34.9014 143.168 35 142.991 35H139.774ZM166.733 35.4537C163.893 35.4537 161.84 33.953 161.032 31.0347L161.546 31.0939V41.1309L161.625 46.2996C161.625 46.4969 161.526 46.5758 161.349 46.5758H158.292C158.114 46.5758 158.016 46.4969 158.016 46.2996L158.114 33.2245L158.016 14.9766C158.016 14.7793 158.114 14.6807 158.292 14.6807H161.13C161.308 14.6807 161.406 14.7793 161.406 14.9766L161.349 17.9161C162.137 15.8644 164.072 14.227 167.009 14.227C172.036 14.227 174.561 18.3302 174.561 24.8403C174.561 31.4294 172.036 35.4537 166.733 35.4537ZM165.806 32.9088C169.791 32.9088 171.071 29.8511 171.071 24.8403C171.071 19.8889 169.791 16.772 165.806 16.772C163.143 16.772 161.25 18.6066 160.539 22.0196V27.6809C161.25 31.0347 163.143 32.9088 165.806 32.9088Z" fill="white"/>
<path d="M24.2275 37.3887H24.21L20.7988 25.8867L18.7422 18.9521H18.7432C19.0417 19.901 19.9377 20.5898 20.9961 20.5898C21.9543 20.5898 22.7785 20.0255 23.1465 19.2148C23.203 19.0915 23.2485 18.9623 23.2822 18.8291L29.2715 1.8125C29.2138 2.00217 29.1811 2.20219 29.1709 2.4082C29.1848 2.21881 29.2192 2.0348 29.2725 1.85938L29.3477 1.64453C29.7162 0.720924 30.6045 0.0562983 31.6572 0.00292969H31.8965C31.8864 0.00230538 31.8763 0.000513443 31.8662 0H37.3887L24.2275 37.3887ZM16.5898 11.502L18.6455 18.4355H18.6445C18.3458 17.4869 17.4499 16.7988 16.3916 16.7988C15.4336 16.799 14.6092 17.3624 14.2412 18.1729C14.1847 18.2964 14.1392 18.4263 14.1055 18.5596L8.11621 35.5762C8.18563 35.3478 8.22264 35.1044 8.22266 34.8535C8.22266 34.8519 8.22168 34.8502 8.22168 34.8486C8.21631 35.0843 8.18165 35.3127 8.11621 35.5283L8.04102 35.7441C7.67238 36.6678 6.78327 37.3325 5.73047 37.3857H5.50195C5.5087 37.3861 5.5157 37.3874 5.52246 37.3877H0L13.1602 0H13.1777L16.5898 11.502Z" fill="white"/>
</svg>
